<svg width="67" height="42" viewBox="0 0 67 42" fill="none" xmlns="http://www.w3.org/2000/svg">
<path d="M0 40.6516H6.01953V18.7118L6.04677 16.1129H6.53705L7.24523 18.7118L14.2998 40.6516H20.2648V0.437704H14.2453V22.6511L14.2181 25.2773H13.755L13.0196 22.5143L5.99229 0.437704H0V40.6516Z" fill="#FBF9F9"/>
<path d="M24.2901 40.6516H30.6909V34.5785H24.2901V40.6516Z" fill="#FBF9F9"/>
<path d="M37.6531 40.6516H44.2719V0.437704H40.4858C40.2861 0.784217 40.05 1.13985 39.7777 1.5046C39.5053 1.86936 39.1875 2.21587 38.8243 2.54415C38.2614 3.07304 37.4988 3.61105 36.5364 4.15817C35.5921 4.68707 34.3846 5.07006 32.9138 5.30715V9.13704H37.6531V40.6516Z" fill="#FBF9F9"/>
<path d="M57.8443 41.0893C60.4773 41.0893 62.62 40.2778 64.2724 38.6546C65.943 37.0315 66.7601 34.843 66.7238 32.0891V9.00026C66.7238 6.24638 65.8976 4.05787 64.2452 2.43472C62.6109 0.811573 60.4773 0 57.8443 0C55.2114 0 53.0596 0.811573 51.389 2.43472C49.7366 4.05787 48.9195 6.24638 48.9376 9.00026V32.0891C48.9376 34.8247 49.7547 37.0132 51.389 38.6546C53.0414 40.2778 55.1932 41.0893 57.8443 41.0893ZM57.7899 35.3445C57.009 35.3445 56.3917 35.0618 55.9377 34.4965C55.5019 33.9311 55.284 33.1286 55.284 32.0891V9.00026C55.284 7.97896 55.5019 7.18562 55.9377 6.62025C56.3917 6.03665 57.009 5.74485 57.7899 5.74485C59.4968 5.74485 60.3502 6.82999 60.3502 9.00026V32.0891C60.3502 33.1104 60.1232 33.9128 59.6693 34.4965C59.2153 35.0618 58.5888 35.3445 57.7899 35.3445Z" fill="#FBF9F9"/>
</svg>
