<svg width="47" height="43" viewBox="0 0 47 43" fill="none" xmlns="http://www.w3.org/2000/svg">
<path d="M1.855 34H5.7225V19.965L5.74 18.3025H6.055L6.51 19.965L11.0425 34H14.875V8.275H11.0075V22.485L10.99 24.165H10.6925L10.22 22.3975L5.705 8.275H1.855V34ZM17.4612 34H21.5737V30.115H17.4612V34ZM26.0468 34H30.2993V8.275H27.8668C27.7385 8.49667 27.5868 8.72416 27.4118 8.9575C27.2368 9.19083 27.0327 9.4125 26.7993 9.6225C26.4377 9.96083 25.9477 10.305 25.3293 10.655C24.7227 10.9933 23.9468 11.2383 23.0018 11.39V13.84H26.0468V34ZM39.0195 34.28C40.7112 34.28 42.0879 33.7608 43.1495 32.7225C44.2229 31.6842 44.7479 30.2842 44.7245 28.5225V13.7525C44.7245 11.9908 44.1937 10.5908 43.132 9.5525C42.082 8.51417 40.7112 7.995 39.0195 7.995C37.3279 7.995 35.9454 8.51417 34.872 9.5525C33.8104 10.5908 33.2854 11.9908 33.297 13.7525V28.5225C33.297 30.2725 33.822 31.6725 34.872 32.7225C35.9337 33.7608 37.3162 34.28 39.0195 34.28ZM38.9845 30.605C38.4829 30.605 38.0862 30.4242 37.7945 30.0625C37.5145 29.7008 37.3745 29.1875 37.3745 28.5225V13.7525C37.3745 13.0992 37.5145 12.5917 37.7945 12.23C38.0862 11.8567 38.4829 11.67 38.9845 11.67C40.0812 11.67 40.6295 12.3642 40.6295 13.7525V28.5225C40.6295 29.1758 40.4837 29.6892 40.192 30.0625C39.9004 30.4242 39.4979 30.605 38.9845 30.605Z" fill="#FBF9F9"/>
<rect x="2" y="36" width="43" height="2" fill="#FBF9F9"/>
</svg>
